<svg t="1595053976586" class="icon" viewBox="0 0 1138 1024" version="1.1" xmlns="http://www.w3.org/2000/svg" p-id="7909"
				 width="64" height="64">
					<path d="M1020.643556 19.2H117.134222C52.565333 19.2 0 69.944889 0 132.295111v549.347556c0 62.378667 52.536889 113.123556 117.134222 113.123555h301.169778v77.710222l-108.373333 89.685334a23.694222 23.694222 0 0 0-7.196445 26.823111 25.088 25.088 0 0 0 23.552 15.815111h485.205334c10.524444 0 19.911111-6.314667 23.552-15.815111a23.694222 23.694222 0 0 0-7.196445-26.823111l-108.373333-89.685334V794.737778h301.198222c64.568889 0 117.105778-50.744889 117.105778-113.123556V132.295111C1137.777778 69.973333 1085.240889 19.2 1020.643556 19.2z m-276.992 937.130667H394.126222l65.621334-54.328889a23.978667 23.978667 0 0 0 7.196444-10.296889h203.889778c1.422222 3.868444 3.754667 7.452444 7.196444 10.325333l65.621334 54.300445z m-275.143112-80.782223v-80.782222h200.760889v80.782222h-200.760889z m619.064889-193.905777c0 35.697778-29.952 64.654222-66.929777 64.654222H117.134222c-36.977778 0-66.929778-28.956444-66.929778-64.654222v-64.625778h1037.368889v64.625778z m0-80.782223H50.204444V132.295111c0-35.697778 29.952-64.625778 66.929778-64.625778h903.509334c36.977778 0 66.929778 28.928 66.929777 64.625778v468.565333zM568.888889 713.955556c18.460444 0 33.450667-14.506667 33.450667-32.312889 0-17.806222-14.990222-32.312889-33.450667-32.312889-18.432 0-33.450667 14.506667-33.450667 32.312889 0 17.834667 15.018667 32.312889 33.450667 32.312889z m0-48.469334c9.244444 0 16.725333 7.253333 16.725333 16.156445a16.469333 16.469333 0 0 1-16.725333 16.156444 16.469333 16.469333 0 0 1-16.725333-16.156444c0-8.903111 7.480889-16.156444 16.725333-16.156445zM386.161778 216.803556l-150.584889 226.190222a7.907556 7.907556 0 0 0 2.503111 11.178666 8.533333 8.533333 0 0 0 11.576889-2.417777l150.584889-226.218667a7.907556 7.907556 0 0 0-2.503111-11.150222 8.533333 8.533333 0 0 0-11.576889 2.417778z m-221.127111 158.008888l-13.112889 19.712a7.907556 7.907556 0 0 0 2.503111 11.178667 8.590222 8.590222 0 0 0 11.576889-2.446222l13.112889-19.712a7.907556 7.907556 0 0 0-2.503111-11.178667 8.533333 8.533333 0 0 0-11.576889 2.446222z m149.048889-208.924444a8.533333 8.533333 0 0 0-11.576889 2.446222l-123.619556 185.685334a7.907556 7.907556 0 0 0 2.531556 11.150222 8.533333 8.533333 0 0 0 11.548444-2.417778l123.619556-185.685333a7.907556 7.907556 0 0 0-2.531556-11.178667z"
					 p-id="7910" fill="#00aaff"></path>
				</svg>