<svg t="1595056106379" class="icon" viewBox="0 0 1024 1024" version="1.1" xmlns="http://www.w3.org/2000/svg" p-id="9893" width="64" height="64"><path d="M96.768 341.952 96.768 341.952l0.256-0.064L96.768 341.952zM99.968 323.584 99.456 323.328l0.192 0.128L99.968 323.584zM356.16 422.656l0.064-0.064L356.096 422.4 356.16 422.656zM366.848 419.584 366.848 419.584 366.848 419.264 366.848 419.584zM375.872 420.416l0.064 0 0-0.256L375.872 420.416zM431.616 406.592 431.424 406.72l0.256 0L431.68 406.656 431.616 406.592zM430.848 405.376 430.784 405.248l-0.064 0L430.592 405.504 430.848 405.376zM405.504 388.672 405.504 388.672 405.44 388.928 405.504 388.672zM415.36 393.664l-0.064 0L415.104 393.856 415.36 393.664zM430.144 403.712l0-0.128L429.888 403.648 430.144 403.712zM101.056 372.608l0 0.064 0.256-0.064L101.056 372.608zM150.72 402.688l0.064 0.064 0.064-0.256L150.72 402.688zM174.912 409.344 174.912 409.344l0.064-0.256L174.912 409.344zM232.704 416.384 232.704 416.384l0.128-0.256L232.704 416.384zM288.768 423.36l0.064 0.064 0.064-0.256L288.768 423.36zM301.312 422.72l0.064 0L301.44 422.4 301.312 422.72zM112.64 329.088 112.64 329.088l0.192 0.192L112.64 329.088zM234.688 352 234.688 352l0 0.256L234.688 352zM80.704 367.872 80.704 367.872 80.576 367.616 80.704 367.872zM74.112 368.192 73.216 368.704l1.024 0L74.24 368.448 74.112 368.192zM103.04 324.48 103.04 324.48 102.848 324.608 103.04 324.48zM91.456 319.68l-0.064-0.64L90.944 319.488l0.192 0.192L91.456 319.68zM104.32 323.648 104.32 323.648 104.512 323.84 104.32 323.648zM76.544 353.728 76.352 354.24l0.128-0.256L76.544 353.728zM69.568 368.96l0.512 0.256L69.824 369.088 69.568 368.96zM80.384 369.088 80.384 369.088l0.192 0.128L80.384 369.088zM80.448 376.96 80.64 377.6l0.32-0.576L80.704 376.896 80.448 376.96zM79.36 372.864 79.36 372.864l0.256 0L79.36 372.864zM984.704 816.256c-18.496-20.736-54.784-30.528-85.056-29.824-19.392-23.168-122.688-132.224-142.464-153.152 42.688-30.016 79.744-68.928 108.224-115.2l56.768 0 0-12.16-49.344 0c3.136-5.568 6.08-11.264 8.96-17.024l40.384 0L922.176 476.8l-34.56 0c25.6-55.296 39.872-118.72 38.528-188.224 0.064 0.064 0.064 0.064 0.128 0.064-0.064-19.008-5.952-99.328-16.832-121.472-29.44 11.2-83.072 47.552-95.232 84.672-58.176-8.704-123.712-7.68-181.184 2.304C623.296 214.144 575.168 183.616 538.816 166.4 523.52 192.256 516.736 252.288 518.464 294.848 518.336 294.912 518.272 294.912 518.208 294.976 519.68 333.504 525.12 368.768 533.504 401.28c-125.696 31.104-262.656 113.536-339.2 193.216-35.84-48.384-50.048-88.128-54.272-118.208-5.312-38.016 3.712-72.896 26.24-100.8 35.2-43.776 85.184-46.848 136.576-38.208C301.824 345.408 302.912 353.152 306.176 357.952c13.632 20.096 86.656 27.136 130.304 7.68-32.192-45.12-97.408-67.2-115.456-58.368-6.016 2.944-10.496 8.32-13.568 14.528C289.664 318.656 272 316.288 259.072 316.416 213.76 316.736 179.072 332.608 153.088 364.864c-25.472 31.68-35.776 71.04-29.76 113.728 5.696 40.448 25.728 83.52 59.264 128.192C177.024 612.8 171.648 618.688 166.464 624.512c-81.792 91.584-141.632 189.888-141.632 206.144l0 8.448 107.904 0-1.856-9.984C124.8 796.864 136.96 756.544 161.92 726.4c15.616-18.88 41.536-40.512 82.24-50.432 36.16 35.328 82.304 72.896 133.632 109.12l80.192 0 0-8.448c0-9.536-4.736-17.856-13.248-23.488-12.672-8.32-32.256-9.408-50.176-3.328-17.152-19.072-26.752-44.608-28.8-76.288 174.08 15.424 340.544 85.76 528.384 184l103.36 0 1.344-6.784C1000.704 841.216 995.392 828.288 984.704 816.256L984.704 816.256zM984.704 816.256" p-id="9894" fill="#13227a"></path></svg>