<svg t="1595051416692" class="icon" viewBox="0 0 1024 1024" version="1.1" xmlns="http://www.w3.org/2000/svg" p-id="5600"
				 width="64" height="64">
					<path d="M574.368 599.92c-5.328 30.448-25.904 47.808-62.384 47.808h-32.592l15.808-90.176h30.56c35.904 0 54.144 10.96 48.608 42.368z m-34.432-101.52h-109.328l-55.008 323.856h74.896l18.24-115.376h36.48c65.776 0 128.928-32.864 142.032-106.944 13.664-77.008-38.64-101.536-107.312-101.536z m276.288 432.448H211.824V77.584h301.712v232.704c0 38.592 32.208 69.808 70.816 69.808h231.872v550.752zM583.392 114.832l194.8 195.472H583.392V114.832z m282.896 185.584L596.784 28.432a74.624 74.624 0 0 0-14.256-11.152c-1.36-0.768-2.72-1.552-4.176-2.224-0.88-0.48-1.84-0.88-2.72-1.264a69.568 69.568 0 0 0-28.128-6.016H212.8c-38.608 0-70.816 31.216-70.816 69.808v853.264c0 38.592 32.208 69.808 70.816 69.808h604.4c38.608 0 68.88-31.216 68.88-69.808v-581.28c0-18.416-6.8-36.064-19.792-49.152z"
					 p-id="5601" fill="#1296db"></path>
				</svg>