<svg t="1595056632158" class="icon" viewBox="0 0 1024 1024" version="1.1" xmlns="http://www.w3.org/2000/svg" p-id="11609" width="64" height="64"><path d="M385.97 492.308c-7.878 0-15.755 3.938-23.632 11.815-3.938 3.939-7.876 11.815-7.876 23.63h63.015c0-23.63-11.815-35.445-31.508-35.445z m181.168 3.938c-11.815 0-19.692 3.939-27.569 15.754-7.877 7.877-11.815 23.63-11.815 39.385s3.938 27.569 7.877 35.446c7.877 7.877 15.754 11.815 27.569 11.815s19.692-3.938 27.57-11.815 11.815-19.693 11.815-31.508v-11.815c0-11.816-3.939-19.693-11.816-27.57-3.938-15.753-11.815-19.692-23.63-19.692z m-378.092-63.015h-23.63v66.954h23.63c11.816 0 19.692-3.939 27.57-11.816 7.876-7.877 11.815-15.754 11.815-23.63 0-19.693-11.816-31.508-39.385-31.508z m791.63-212.677c-3.938-11.816-15.753-27.57-27.568-35.446l-7.877-3.939H78.769c-19.692 3.939-35.446 19.693-39.384 39.385-3.939 11.815-3.939 15.754-3.939 291.446l3.939 275.692 3.938 11.816c3.939 3.938 7.877 15.754 11.815 19.692 15.754 15.754-23.63 15.754 456.862 15.754h429.292l11.816-7.877c11.815-7.877 23.63-23.63 27.569-35.446 0-7.877 3.938-59.077 3.938-283.57-3.938-267.815-3.938-275.692-3.938-287.507zM248.124 626.215l-35.446-59.077c-7.877-11.815-11.815-19.692-19.692-23.63s-7.877-3.939-15.754-3.939h-11.816v90.585h-47.261v-228.43h78.77c55.138 0 82.707 19.691 82.707 63.014 0 15.754-3.939 27.57-11.816 39.385-7.877 11.815-23.63 19.692-39.384 23.63 11.815 3.94 23.63 15.755 35.446 35.447l43.323 66.954h-59.077zM460.8 559.262H354.462c0 23.63 15.753 39.384 47.261 39.384 19.692 0 35.446-3.938 47.262-11.815v35.446c-15.754 3.938-35.447 7.877-59.077 7.877-27.57 0-47.262-7.877-59.077-23.63-15.754-15.755-23.631-35.447-23.631-63.016 0-27.57 7.877-47.262 23.63-63.016 15.755-15.754 35.447-23.63 59.078-23.63s39.384 7.876 55.138 19.692 19.692 31.508 19.692 59.077v23.63z m189.046 66.953h-47.261v-23.63c-11.816 19.692-31.508 27.569-51.2 27.569s-35.447-7.877-51.2-23.63c-11.816-15.755-19.693-35.447-19.693-59.078 0-27.57 7.877-47.261 19.693-63.015C512 468.677 531.692 460.8 555.323 460.8c19.692 0 35.446 7.877 43.323 23.63v-98.46h47.262v240.245z m90.585 0h-47.262V460.8h47.262v165.415z m-3.939-196.923c-3.938 3.939-11.815 7.877-19.692 7.877s-15.754-3.938-19.692-7.877c-3.939-3.938-7.877-11.815-7.877-19.692s3.938-11.815 7.877-19.692 11.815-7.877 19.692-7.877 15.754 3.938 19.692 7.877c3.939 3.938 7.877 11.815 7.877 15.754 0 11.815-3.938 19.692-7.877 23.63z m145.723 189.046c-11.815 7.877-31.507 11.816-55.138 11.816-19.692 0-35.446-3.939-51.2-7.877v-39.385c15.754 11.816 31.508 15.754 47.261 15.754 19.693 0 31.508-3.938 31.508-15.754 0-7.877-7.877-11.815-23.63-19.692-19.693-7.877-35.447-11.815-43.324-19.692-7.877-7.877-11.815-19.693-11.815-31.508 0-15.754 7.877-27.57 19.692-39.385 11.816-7.877 31.508-11.815 51.2-11.815 15.754 0 27.57 3.938 43.323 7.877v39.385c-11.815-7.877-27.569-11.816-43.323-11.816-7.877 0-11.815 0-19.692 3.939s0 3.938 0 7.877c0 7.876 7.877 11.815 19.692 19.692 15.754 3.938 27.57 7.877 31.508 11.815 7.877 3.939 11.815 7.877 15.754 15.754s3.938 15.754 3.938 23.63c3.939 15.755-3.938 27.57-15.754 39.385z" p-id="11610" fill="#d4237a"></path></svg>