<svg t="1595050775157" class="icon" viewBox="0 0 1024 1024" version="1.1" xmlns="http://www.w3.org/2000/svg" p-id="3799"
 width="64" height="64">
	<path d="M824.888889 1024H199.111111a56.888889 56.888889 0 0 1-56.888889-56.888889V56.888889a56.888889 56.888889 0 0 1 56.888889-56.888889h625.777778a56.888889 56.888889 0 0 1 56.888889 56.888889v910.222222a56.888889 56.888889 0 0 1-56.888889 56.888889z m-270.222222-369.777778a42.666667 42.666667 0 1 0-0.028445-85.361778A42.666667 42.666667 0 0 0 554.666667 654.222222zM824.888889 56.888889H199.111111v170.666667h625.777778V56.888889z m0 227.555555H199.111111v170.666667h625.777778v-170.666667z m-85.333333 227.555556a85.333333 85.333333 0 1 0 0 170.666667 85.333333 85.333333 0 0 0 0-170.666667z"
	 fill="#13227a" p-id="3800"></path>
</svg>